Coordinates
version=1
nRows=13
nColumns=36
inDegrees=yes

Units are S.I. units (second, meters, Newtons, ...)
If the header above contains a line with 'inDegrees', this indicates whether rotational values are in degrees (yes) or radians (no).

endheader
time	pelvis_tilt	pelvis_list	pelvis_rotation	pelvis_tx	pelvis_ty	pelvis_tz	hip_flexion_r	hip_adduction_r	hip_rotation_r	knee_angle_r	knee_angle_r_beta	ankle_angle_r	subtalar_angle_r	mtp_angle_r	hip_flexion_l	hip_adduction_l	hip_rotation_l	knee_angle_l	knee_angle_l_beta	ankle_angle_l	subtalar_angle_l	mtp_angle_l	lumbar_extension	lumbar_bending	lumbar_rotation	arm_flex_r	arm_add_r	arm_rot_r	elbow_flex_r	pro_sup_r	arm_flex_l	arm_add_l	arm_rot_l	elbow_flex_l	pro_sup_l
      6.81666670	     -2.62220528	     -0.86174187	     -1.32219652	      0.39579215	      0.89097268	     -0.10161329	      1.03919896	     -1.39017561	     -0.43569464	      1.15952276	      0.02023749	      6.09058788	    -13.33423002	     -7.49999987	      3.06289193	     -4.11701054	      4.16620581	      1.24617193	      0.02174980	      3.30788093	    -10.06932505	     -7.49999987	    -10.44298554	      0.34729436	     -0.24124942	     14.31458819	    -10.64359335	     33.94398316	     30.16727847	     74.92174110	     12.86504675	     -9.43724019	     25.89015276	     30.88768517	     68.96300921
      6.83333330	     -2.41799633	     -0.89185238	     -1.39457926	      0.39576406	      0.89049944	     -0.10170337	      0.65839231	     -1.38515383	     -0.91566089	      0.96128485	      0.01677759	      6.84275534	    -11.81394253	     -7.49999987	      2.58781074	     -4.15611517	      4.18334811	      0.99399827	      0.01734854	      3.60010525	     -9.83471070	     -7.49999987	    -10.38881908	      0.43648082	     -0.19211298	     14.25002779	    -10.53453596	     34.27020386	     30.03375796	     70.73115114	     12.86125520	     -9.16838583	     26.18148238	     30.58107134	     66.11942319
      6.85000000	     -2.33963751	     -0.82666632	     -1.54287688	      0.39483286	      0.88693393	     -0.10025902	      0.51858669	     -1.40880457	      0.32243177	      0.85743174	      0.01496501	      6.13470296	    -14.04060708	     -7.49999987	      2.33434585	     -4.13034361	      4.34143512	      0.89614074	      0.01564061	      3.46125446	    -10.46548220	     -7.49999987	    -10.30139211	      0.36835284	     -0.05043379	     14.28484352	    -10.70443412	     34.67839126	     30.24033755	     81.49578710	     13.16680592	     -9.63901945	     29.12143557	     30.50192656	     70.84056823
      6.86666670	     -2.31007582	     -0.80077142	     -1.69213713	      0.39511138	      0.89076213	     -0.10222743	      0.44596091	     -1.43354479	      0.32409386	      0.80668333	      0.01407928	      6.11791328	    -13.99181614	     -7.49999987	      2.15332697	     -4.09749158	      4.38694662	      0.79406843	      0.01385911	      3.55952817	    -10.42809170	     -7.49999987	    -10.16014333	      0.36008058	      0.02914859	     14.19735510	    -10.61691032	     34.75228932	     30.21387355	     81.50089873	     13.01297106	     -9.48752777	     29.21558861	     30.49995211	     70.85546147
      6.88333330	     -2.05098921	     -0.78218629	     -1.81099896	      0.39597411	      0.88427856	     -0.10139033	      0.12960507	     -1.45520438	      0.55656873	      0.77970466	      0.01360841	      6.42010494	    -13.91318155	     -7.49999987	      1.75266856	     -4.08876946	      4.06667948	      0.77213587	      0.01347631	      4.08486407	     -9.92476132	     -7.49999987	    -10.21093446	      0.34743690	      0.14798875	     14.09945144	    -10.59087818	     35.11256179	     30.25017748	     80.18066585	     12.91757232	     -9.42500006	     29.57339930	     30.55837573	     70.20404033
      6.90000000	     -1.99500065	     -0.71670051	     -1.79067263	      0.39786286	      0.88848659	     -0.10466404	     -0.01198660	     -1.58531566	      0.54860135	      0.76815279	      0.01340680	      6.41492188	    -13.97662490	     -7.49999987	      1.59264795	     -3.98898267	      4.22838426	      0.71710334	      0.01251581	      4.08200430	     -9.95774440	     -7.49999987	     -9.96786809	      0.37960986	      0.06436115	     13.86195555	    -10.63194759	     35.33624335	     30.25685148	     80.23280321	     12.60499411	     -9.29223137	     29.87395460	     30.54666738	     70.26407205
      6.91666670	     -1.87886208	     -0.73387957	     -1.81307817	      0.39817599	      0.88486975	     -0.10237540	     -0.16238869	     -1.57644629	      0.72571111	      0.79836172	      0.01393404	      6.40570541	    -14.43629294	     -7.49999987	      1.38777077	     -3.97445048	      4.40347705	      0.70953240	      0.01238368	      4.20239576	    -10.27568677	     -7.49999987	     -9.78165824	      0.41595635	      0.05413950	     13.84562019	    -10.86523631	     37.24052337	     30.39016953	     79.14792966	     12.49438026	     -9.48043469	     31.88652368	     30.57971140	     69.85395206
      6.93333330	     -1.79380925	     -0.72436677	     -1.79296908	      0.39895883	      0.88611132	     -0.10349404	     -0.28717795	     -1.62251093	      0.80663720	      0.86858089	      0.01515960	      6.26919080	    -14.73319484	     -7.49999987	      1.22841748	     -3.93838796	      4.49178521	      0.71477308	      0.01247514	      4.21726586	    -10.56101956	     -7.49999987	     -9.44850549	      0.46910561	      0.01134504	     13.82884233	    -10.98063777	     39.43682910	     30.10564498	     74.47691997	     12.34534226	     -9.48296251	     33.65940042	     30.27867292	     66.95325096
      6.95000000	     -1.65685732	     -0.72062855	     -1.84096486	      0.39848558	      0.88526482	     -0.10061963	     -0.43603189	     -1.60231079	      0.91614447	      0.94137863	      0.01643016	      6.27929121	    -14.95636934	     -7.49999987	      1.01740583	     -3.95225212	      4.46595572	      0.72492976	      0.01265241	      4.40161384	    -10.49583303	     -7.49999987	     -9.37001623	      0.43451876	      0.11558299	     13.33781706	    -10.91552052	     38.10934940	     30.43094451	     79.10902813	     11.98166862	     -9.52566450	     33.50368898	     30.52482699	     69.04967119
      6.96666670	     -1.57171902	     -0.71618666	     -1.88883208	      0.39818633	      0.88722966	     -0.09991511	     -0.49840887	     -1.55469300	      1.10743783	      1.02335605	      0.01786093	      6.15114936	    -15.39567137	     -7.49999987	      0.92423331	     -3.99140644	      4.52664927	      0.76109915	      0.01328369	      4.32073752	    -10.78779437	     -7.49999987	     -9.15537041	      0.40927601	      0.20493464	     13.21194482	    -10.93363529	     39.53402471	     30.35201073	     76.21825459	     11.76699961	     -9.61296633	     34.58734167	     30.46325988	     67.76232266
      6.98333330	     -1.51214015	     -0.74369464	     -1.90146869	      0.39862523	      0.88832356	     -0.09768899	     -0.52851718	     -1.42596640	      1.12669066	      1.06268472	      0.01854735	      6.11528652	    -15.55931978	     -7.49999987	      0.86467340	     -4.09803069	      4.51871652	      0.76054241	      0.01327397	      4.28066623	    -10.84441912	     -7.49999987	     -9.00000296	      0.34707249	      0.26493064	     12.85785493	    -10.74381720	     39.13726652	     30.37609983	     78.26428446	     11.43353966	     -9.71734482	     34.81302533	     30.50698693	     68.69345130
      7.00000000	     -1.46939368	     -0.77356632	     -1.84643465	      0.39933695	      0.88886827	     -0.10007890	     -0.55992008	     -1.37957374	      1.30935572	      1.05717993	      0.01845127	      5.93370546	    -15.96031112	     -7.49999987	      0.84012977	     -4.13827203	      4.58366761	      0.75702719	      0.01321262	      4.02730882	    -11.27093070	     -7.49999987	     -8.79761403	      0.33914302	      0.28699635	     12.73716329	    -10.76497880	     40.67200089	     30.21278529	     74.08062562	     11.17050589	     -9.77554421	     35.70473047	     30.52811011	     66.69565658
      7.01666670	     -1.22587077	     -0.78901057	     -1.81978939	      0.39949661	      0.89104444	     -0.10058783	     -0.85618346	     -1.35911120	      1.31579584	      1.01168451	      0.01765723	      6.00689164	    -15.84827914	     -7.49999987	      0.58233478	     -4.15812032	      4.42855561	      0.75034269	      0.01309595	      4.10299876	    -10.96437495	     -7.49999987	     -8.85908872	      0.26785656	      0.24562099	     12.62058663	    -10.75307745	     41.75907801	     30.21507170	     70.46338492	     10.85834098	     -9.84585095	     36.17815464	     30.65457659	     64.90607228
